<svg xmlns="http://www.w3.org/2000/svg" viewBox="0 0 369.6 101.2"><defs><style>.a{fill:#231f20;}.b{fill:#0a8ccc;}</style></defs><title>Asset 1</title><path class="a" d="M253.1,33.9v4.8c-4.3,0-8.2,1.9-9.7,5.4V59h-5.5V34.5h4.8v4c1.9-3.1,5.9-5,10.4-4.6"/><path class="a" d="M356.5,34.2c6.8,0,13.1,4.4,13.1,12.7s-6.3,12.7-13.1,12.7-13.1-4.4-13.1-12.7,6.4-12.7,13.1-12.7m0,4.9c-4.5,0-7.6,3.1-7.6,7.8s3.1,7.8,7.6,7.8,7.6-3.1,7.6-7.8-3.1-7.8-7.6-7.8"/><path class="a" d="M163.3,58.9V34.3h4.9v3.1a11.1,11.1,0,0,1,8.2-3.7c3.7,0,6.2,1.5,7.7,3.9a12,12,0,0,1,8.6-3.9c6.5,0,9.3,4.8,9.3,9.9V59h-5.5V43.8c0-3.2-1.9-5.2-4.9-5.2s-4.8,1.8-6.1,3.3a9.7,9.7,0,0,1,.1,1.7V59h-5.5V43.8c0-3.2-1.9-5.2-4.9-5.2s-5.2,2.1-6.5,3.8V59h-5.4Z"/><path class="a" d="M219.6,33.7c9.8,0,13.2,7.9,11.6,15H212.7c.6,4.4,4.9,6.2,9.4,6.2h7.8v3a20.9,20.9,0,0,1-8.8,1.7c-7.5,0-13.9-4.3-13.9-13s6.7-12.9,12.4-12.9m.2,4.6c-3.7,0-7,2.2-7.2,6.4h13.6c.3-2.2-1-6.4-6.4-6.4"/><path class="a" d="M269.5,33.7a14.8,14.8,0,0,1,7.6,1.9v5a11.9,11.9,0,0,0-6.8-2c-4.4,0-8.8,2.3-8.8,8.1s4.2,8.1,8.7,8.1a15.4,15.4,0,0,0,7.2-1.9V58a18.9,18.9,0,0,1-8.1,1.7c-6.6,0-13.3-4-13.3-12.8s7-13.2,13.5-13.2"/><path class="a" d="M306.7,55.1a7.6,7.6,0,0,0,1.6-.3v3.9a9.5,9.5,0,0,1-3.5.6,4.9,4.9,0,0,1-4.9-2.9,14.5,14.5,0,0,1-9.3,3.2c-4.5,0-8.6-2.5-8.6-7.5s5.8-8.2,11-8.2h6.4v-.2c0-3.1-2.3-5.2-6.5-5.2H284V35.4a29.7,29.7,0,0,1,9.4-1.6c7,0,11.4,3.3,11.4,10.8v8.8a1.7,1.7,0,0,0,1.9,1.7m-19-3.4c0,2.4,2.1,3.6,4.6,3.6a10.1,10.1,0,0,0,7.1-2.9V47.6h-5.3c-3.1.1-6.4,1.1-6.4,4.1"/><path class="a" d="M338,26.4V59h-4.9V55.1a11.5,11.5,0,0,1-9.4,4.6c-7.4,0-12.2-5.9-12.2-13s4.8-13,12.2-13a11.6,11.6,0,0,1,8.9,3.8V26.3H338ZM324.6,38.5c-4.4,0-7.6,3.3-7.6,8.1s3.2,8.1,7.6,8.1a8.5,8.5,0,0,0,7.8-5.2v-6a8.5,8.5,0,0,0-7.8-5"/><polygon class="a" points="270.1 73 264.4 74.3 264.4 72.5 270.1 71.2 270.1 73"/><polygon class="a" points="270.1 73 275.9 74.3 275.9 72.5 270.1 71.2 270.1 73"/><path class="a" d="M174.2,76.3c8.3,0,11,7,10,12.5h-19c.3,6.4,5.3,9,10.6,9H183v1.7h-7.4c-6.3,0-12.1-3.5-12.1-11.6s5.2-11.6,10.7-11.6m0,1.7c-4.7,0-9,3.2-9.2,9.2h17.6c.4-3.8-1.6-9.2-8.4-9.2"/><path class="a" d="M209.6,76.3c8.3,0,11,7,10,12.5h-19c.3,6.4,5.3,9,10.6,9h7.2v1.7H211c-6.3,0-12.1-3.5-12.1-11.6s5.3-11.6,10.7-11.6m.1,1.7c-4.7,0-9,3.2-9.2,9.2H218c.5-3.8-1.5-9.2-8.3-9.2"/><path class="a" d="M335.9,76.3h5.4V78H336c-5.1,0-10.3,3-10.3,10s4.9,9.8,9.9,9.8a14.4,14.4,0,0,0,7.1-1.8v1.8a16.2,16.2,0,0,1-7.2,1.7c-5.7,0-11.5-3.5-11.5-11.4s6.2-11.8,11.9-11.8"/><rect class="a" x="190.7" y="69.9" width="1.8" height="29.6"/><path class="a" d="M228.1,69.5v7.3h9.7v1.7h-9.7V92.6c0,3.6,1.8,5.3,5.5,5.3h4.2v1.6h-4.6c-4.2,0-6.8-2.3-6.8-6.7V78.5h-4.2V76.8h4.2V69.5Z"/><path class="a" d="M255.4,76.7v1.8a9.8,9.8,0,0,0-9.9,7.6V99.5h-1.8V77.1h1.6v6.1a10.7,10.7,0,0,1,10.1-6.5"/><path class="a" d="M270,76.1a11.3,11.3,0,0,1,11.6,11.7,11.6,11.6,0,1,1-23.2,0c0-7.5,5.5-11.7,11.6-11.7m0,1.7a9.5,9.5,0,0,0-9.8,9.9,9.9,9.9,0,1,0,19.7,0,9.7,9.7,0,0,0-9.9-9.9"/><path class="a" d="M298.2,76.6c5,0,8.8,3.4,8.8,9.1V99.4h-1.8V85.9c0-5-3.2-7.6-7.2-7.6s-7.3,3-8.8,5.6V99.5h-1.8V77.1H289v4.6c1.6-2.2,4.8-5.1,9.2-5.1"/><path class="a" d="M316.2,71.9a1.2,1.2,0,0,1-1.3-1.3,1.3,1.3,0,0,1,1.3-1.3,1.3,1.3,0,1,1,0,2.6m-.9,5.2h1.8V99.4h-1.8Z"/><path class="a" d="M357.9,76.1a11.3,11.3,0,0,1,11.6,11.7,11.6,11.6,0,1,1-23.2,0,11.3,11.3,0,0,1,11.6-11.7m0,1.7c-5.3,0-9.8,3.6-9.8,9.9a9.9,9.9,0,1,0,9.8-9.9"/><path class="b" d="M119.9,17h0c-3.6,0-6.8,2.3-6.9,6.3h13.1C126.4,21.2,125.2,17,119.9,17Z"/><path class="b" d="M138.6,0H94.3a5.9,5.9,0,0,0-4.2,1.7L72.8,21.3c-7-7.9-17.3-19.6-17.6-19.8a6.4,6.4,0,0,0-4-1.5H6.8A6.7,6.7,0,0,0,0,6.8V89.2H0v5.1a6.7,6.7,0,0,0,6.8,6.8H38a5.9,5.9,0,0,0,6-5.9V62.5L68.6,90.2a7,7,0,0,0,2,1.5,4.1,4.1,0,0,0,1.9.4,5.8,5.8,0,0,0,1.9-.4,5.1,5.1,0,0,0,2.1-1.5l24.6-27.7V95.2a6.1,6.1,0,0,0,6,5.9h31.5a6.7,6.7,0,0,0,6.8-6.8V6.7A6.7,6.7,0,0,0,138.6,0Zm-4.9,28.7H113.1c1,4.3,5.5,6,10.3,6h8.9v4.9a26.8,26.8,0,0,1-10.7,1.8h0c-9.3,0-17-5.3-17-15.5s7.5-14.9,13.8-15.4h1.3C131.8,10.5,135.7,20.1,133.7,28.7Z"/></svg>